<svg width="100%" height="100%" viewBox="0 0 62 61" fill="none" xmlns="http://www.w3.org/2000/svg"><path d="M14 10h14M8 10H3a2 2 0 0 0-2 2v46a2 2 0 0 0 2 2h56a2 2 0 0 0 2-2V12a2 2 0 0 0-2-2h-5m-20 0h14M1 25h60" stroke="#fff" stroke-width="2"/><rect x="8" y="1" width="6" height="19" rx="3" stroke="#fff" stroke-width="2"/><rect x="48" y="1" width="6" height="19" rx="3" stroke="#fff" stroke-width="2"/><rect x="28" y="1" width="6" height="19" rx="3" stroke="#fff" stroke-width="2"/><rect x="7" y="30" width="48" height="8" rx="1" fill="#fff"/><rect x="7" y="42" width="48" height="4" rx="1" fill="#fff"/><rect x="7" y="50" width="48" height="4" rx="1" fill="#fff"/></svg>