<?xml version="1.0" encoding="utf-8"?>
<!-- Generator: Adobe Illustrator 28.3.0, SVG Export Plug-In . SVG Version: 6.00 Build 0)  -->
<svg version="1.1" id="Layer_1" xmlns="http://www.w3.org/2000/svg" xmlns:xlink="http://www.w3.org/1999/xlink" x="100%" y="100%"
	 viewBox="0 0 12 12" style="enable-background:new 0 0 12 12;" xml:space="preserve">
<path d="M6,0.7c0.2,0,1.1,0,1.8,0.6c0.5,0.4,0.8,1,0.8,1.2v1.9c0,0.7-0.3,2.1-1.1,2.7C7.3,7.4,7.2,7.7,7.2,7.9
	c0,0.3,0.2,0.5,0.4,0.6C8.2,8.6,9,8.9,9.8,9.6c0.7,0.6,1.2,1.2,1.4,1.6c-3.5,0-7,0-10.5,0c0.3-0.5,0.8-1.2,1.7-1.8
	c0.7-0.5,1.4-0.8,1.9-1c0.2-0.1,0.4-0.3,0.4-0.6c0-0.3-0.2-0.6-0.3-0.7c-0.8-0.6-1.1-2-1.1-2.7c0-0.6,0-1.2,0-1.9
	c0.1-0.2,0.3-0.9,1-1.4C5,0.8,5.8,0.7,6,0.7z M6,0C4.3,0,2.6,1.4,2.6,2.6v1.9C2.6,5.3,3,7,4,7.8C3.5,8,2.7,8.3,1.9,9
	c-1,0.8-1.6,1.7-1.9,2.3c0,0.2,0,0.5,0,0.7c0.2,0,0.5,0,0.7,0h10.5c0.3,0,0.5,0,0.8,0c0-0.2,0-0.5,0-0.7c-0.3-0.5-0.8-1.3-1.7-2.1
	C9.4,8.4,8.5,8,8,7.8C8.3,7.5,8.8,7,9.1,6.2c0.2-0.6,0.3-1.2,0.3-1.7V2.6C9.3,2.3,9.1,1.5,8.3,0.8C7.4,0,6.3,0,6,0z"/>
<path d="M17.8,1.4"/>
</svg>


